<svg width="72" height="72" viewBox="0 0 72 72" fill="none" xmlns="http://www.w3.org/2000/svg">
<path d="M0 36C0 16.1178 16.1178 0 36 0C55.8823 0 72 16.1178 72 36C72 55.8823 55.8823 72 36 72C16.1178 72 0 55.8823 0 36Z" fill="#FFAB00"/>
<g clip-path="url(#clip0_5_25)">
<path d="M30.125 40.5884V43.5C30.125 48.1527 33.9098 52 38.5625 52C43.2152 52 47 48.1527 47 43.5V42.4676C49.137 42.0321 50.75 40.1385 50.75 37.875C50.75 35.2904 48.6471 33.1875 46.0625 33.1875C43.478 33.1875 41.375 35.2904 41.375 37.875C41.375 40.1385 42.9881 42.0321 45.125 42.4676V43.5C45.125 47.1182 42.1807 50.125 38.5625 50.125C34.9443 50.125 32 47.1182 32 43.5V40.5896C35.8261 39.8877 40.2417 35.1368 41.0061 30.6176C41.5073 27.6493 40.2688 25.273 37.625 24.0844V22.8125C37.625 21.2616 36.3634 20 34.8125 20C33.2616 20 32 21.2616 32 22.8125C32 24.3634 33.2616 25.625 34.8125 25.625H36.477C38.6341 26.4237 39.5408 28.0357 39.1567 30.3054C38.4984 34.201 34.1112 38.8125 31.0625 38.8125C27.648 38.8125 22.9021 33.3901 22.8733 29.375C22.8605 27.5853 23.7982 26.3021 25.6229 25.625H27.3125C28.8634 25.625 30.125 24.3634 30.125 22.8125C30.125 21.2616 28.8635 20 27.3125 20C25.7616 20 24.5 21.2616 24.5 22.8125V24.074C22.2448 25.0839 20.9951 26.9762 21 29.375C21.0096 34.0759 25.8801 39.802 30.125 40.5884ZM45.125 36.9375H47V38.8125H45.125V36.9375Z" fill="white"/>
</g>
<defs>
<clipPath id="clip0_5_25">
<rect width="32" height="32" fill="white" transform="translate(20 20)"/>
</clipPath>
</defs>
</svg>
